<?xml version="1.0" encoding="UTF-8" standalone="no"?>
<!-- Generator: Adobe Illustrator 15.1.0, SVG Export Plug-In . SVG Version: 6.00 Build 0)  -->

<svg
   xmlns:dc="http://purl.org/dc/elements/1.1/"
   xmlns:cc="http://creativecommons.org/ns#"
   xmlns:rdf="http://www.w3.org/1999/02/22-rdf-syntax-ns#"
   xmlns:svg="http://www.w3.org/2000/svg"
   xmlns="http://www.w3.org/2000/svg"
   xmlns:sodipodi="http://sodipodi.sourceforge.net/DTD/sodipodi-0.dtd"
   xmlns:inkscape="http://www.inkscape.org/namespaces/inkscape"
   version="1.1"
   id="Vrstva_1"
   x="0px"
   y="0px"
   width="87"
   height="87"
   viewBox="0 0 87.000002 87.000001"
   enable-background="new 0 0 122.449 121.266"
   xml:space="preserve"
   inkscape:version="0.91 r13725"
   sodipodi:docname="bw.svg"><metadata
   id="metadata13120"><rdf:RDF><cc:Work
       rdf:about=""><dc:format>image/svg+xml</dc:format><dc:type
         rdf:resource="http://purl.org/dc/dcmitype/StillImage" /><dc:title></dc:title></cc:Work></rdf:RDF></metadata><defs
   id="defs13118" /><sodipodi:namedview
   pagecolor="#ffffff"
   bordercolor="#666666"
   borderopacity="1"
   objecttolerance="10"
   gridtolerance="10"
   guidetolerance="10"
   inkscape:pageopacity="0"
   inkscape:pageshadow="2"
   inkscape:window-width="1920"
   inkscape:window-height="1018"
   id="namedview13116"
   showgrid="false"
   inkscape:zoom="4.6390472"
   inkscape:cx="56.668459"
   inkscape:cy="56.620736"
   inkscape:window-x="1912"
   inkscape:window-y="-8"
   inkscape:window-maximized="1"
   inkscape:current-layer="Vrstva_1" />

<g
   id="g13764"
   transform="translate(7.4003079,-42.007502)"><path
     style="fill:#010101"
     inkscape:connector-curvature="0"
     id="path13112"
     d="m 3.9592307,73.359437 c 2.876478,-3.211418 6.7860823,-4.705677 11.7305813,-4.483956 1.926498,0.11204 4.091227,0.571993 6.49301,1.382219 2.093967,0.754795 3.783412,1.412293 5.068922,1.970134 0.362656,0.16688 0.739464,0.376808 1.131604,0.628013 -0.11204,-0.726491 -0.16747,-1.313226 -0.16747,-1.760206 0,-2.149398 0.767178,-3.998647 2.302125,-5.550105 1.537306,-1.549689 3.3954,-2.323355 5.571334,-2.323355 l 0,-0.0012 0.0012,0 c 2.178293,0.02772 4.042283,0.810226 5.591973,2.346352 1.549689,1.535537 2.325123,3.393041 2.325123,5.570154 0,0.587325 -0.07076,1.172881 -0.208748,1.760207 0.334941,-0.22467 0.725311,-0.447571 1.171112,-0.670471 0.837941,-0.33494 1.682958,-0.663394 2.536231,-0.984772 0.851503,-0.321378 1.681188,-0.651011 2.491414,-0.984772 2.486107,-0.782511 4.650837,-1.228312 6.494189,-1.340352 4.942141,-0.194595 8.865307,1.299664 11.771269,4.483957 2.875299,3.181934 4.172604,6.37979 3.894863,9.591208 -0.196955,3.324048 -1.145167,6.157479 -2.848763,8.505011 -0.55961,0.753026 -1.179958,1.451212 -1.863991,2.093967 -0.684033,0.642756 -1.64109,1.480697 -2.869402,2.515002 -0.865656,0.781331 -1.627527,1.333865 -2.283846,1.655243 -0.656318,0.321378 -1.053764,0.5773 -1.19352,0.774255 -0.05543,0.11086 -0.09848,0.16747 -0.126192,0.16747 l -1.382219,7.83277 2.764438,10.22217 c -1.256027,1.28374 -4.341253,2.35107 -9.256268,3.20317 -4.893787,0.84973 -10.564187,1.27371 -17.008842,1.27784 -0.02772,0 -0.05425,5.9e-4 -0.08197,5.9e-4 -6.367997,0 -11.980608,-0.40452 -16.841372,-1.21534 -4.859585,-0.80963 -7.986089,-1.84276 -9.3818713,-3.09938 L 12.548583,106.5769 11.208821,98.702261 c 0,-0.02772 -0.01356,-0.05543 -0.04128,-0.0855 -0.02772,-0.02772 -0.0572,-0.06899 -0.08491,-0.124423 -0.11086,-0.196954 -0.488848,-0.454646 -1.1298343,-0.774844 -0.642756,-0.321378 -1.425856,-0.872143 -2.346352,-1.655243 -1.172882,-1.005411 -2.1093,-1.836865 -2.807485,-2.493773 -0.698186,-0.65396 -1.326789,-1.36158 -1.88463,-2.114607 -1.703597,-2.346352 -2.66655098,-5.181552 -2.89004098,-8.5056 -0.198723,-3.207291 1.11391298,-6.406916 3.93496098,-9.58885 z m 37.1141143,-15.752226 -3.476186,0 0,5.488778 -1.508412,0 0,0 -1.464185,0 -0.04305,-5.445141 -3.560511,-0.04246 c -0.921676,0 -1.382219,-0.459364 -1.382219,-1.382809 l 0,-0.04069 c 0,-0.922266 0.460543,-1.382809 1.382219,-1.382809 l 3.603558,0 0,-3.561101 c 0,-0.977106 0.488258,-1.465954 1.464185,-1.465954 l 0,0 c 1.005411,0 1.508412,0.487079 1.508412,1.463595 l 0,3.560512 3.476186,0 c 0.949981,0 1.425266,0.461132 1.425266,1.385167 l 0,0.0401 c 0,0.921675 -0.475285,1.382808 -1.425266,1.382808 z" /><path
     style="fill:#ffffff"
     inkscape:connector-curvature="0"
     id="path13114"
     d="m 5.2577147,76.541371 c 2.150577,-3.127093 5.4180153,-4.690345 9.8023153,-4.690345 2.624683,0 5.319538,0.544278 8.085156,1.633424 2.428908,0.977106 4.272849,2.068021 5.530645,3.268618 2.344583,2.346352 4.077074,5.362585 5.193346,9.04693 0.39214,1.313226 0.622117,2.507336 0.69111,3.582919 0.07076,1.074404 0.106143,2.170037 0.106143,3.288078 -4.803565,0.05543 -9.202607,0.340837 -13.195357,0.85799 -3.993929,0.517153 -7.121022,1.166984 -9.384229,1.948905 -1.060842,-0.837351 -2.2207503,-1.766693 -3.4767763,-2.787436 -1.257796,-1.019563 -2.304485,-2.057996 -3.142426,-3.120017 -1.340351,-1.703597 -2.010822,-3.951472 -2.010822,-6.744804 0,-2.512644 0.600888,-4.60838 1.800895,-6.284262 z m 30.8316223,35.567369 0,-2.97495 -0.04128,0 c -9.187275,0 -16.43449,0.76718 -21.741645,2.30213 l 1.257796,-4.81654 c 5.530055,-1.22772 12.370978,-1.84276 20.525717,-1.84276 l 0,-2.80631 c -0.05661,0 -0.110861,-5.9e-4 -0.166881,-5.9e-4 -8.601719,0 -15.541119,0.64276 -20.819969,1.92827 l -1.046099,-6.158072 c 5.612613,-1.481286 12.958305,-2.221929 22.032951,-2.221929 l 0,5.027641 c 8.523291,0.009 15.394877,0.73593 20.610041,2.17712 l -0.628603,4.23098 c -5.24111,-1.35922 -11.903359,-2.0409 -19.981438,-2.05033 l 0,3.47559 0,0 c 8.154148,0 14.969715,0.62861 20.442571,1.88463 l 1.340352,4.98578 c -5.2989,-1.61809 -12.560267,-2.42773 -21.782923,-2.43068 l 0,5.57075 -0.04128,0 c -4.915016,0 -9.398382,-0.27067 -13.448331,-0.81553 -4.049359,-0.54605 -7.176453,-1.27844 -9.381871,-2.19894 5.390301,-2.1777 12.958893,-3.26861 22.70342,-3.26861 0.05602,10e-4 0.11086,0.002 0.16747,0.002 z M 49.432114,96.062267 c -3.0581,-0.390371 -7.003675,-0.61504 -11.833776,-0.67165 -0.0012,-1.115682 0.02654,-2.658885 0.08197,-4.627839 0.0572,-1.967775 0.265947,-3.608866 0.628603,-4.922092 1.145166,-3.743313 2.876478,-6.758367 5.195115,-9.04752 1.200597,-1.172881 3.043948,-2.264386 5.530056,-3.269797 2.846994,-1.116271 5.541849,-1.675881 8.083386,-1.675881 4.413784,0 7.680633,1.580352 9.804085,4.733392 1.200596,1.675882 1.800305,3.771618 1.800305,6.284851 0,2.736723 -0.670471,4.984008 -2.010823,6.744804 -0.698185,1.005411 -2.038537,2.248465 -4.021644,3.727982 -1.981337,1.480696 -3.657219,2.848763 -5.025286,4.10479 -2.430677,-0.528947 -5.173886,-0.990669 -8.231987,-1.38104 z M 59.986866,90.88897 c 1.103889,-1.045509 2.075098,-2.030282 2.912449,-2.952547 1.395782,-1.425266 2.093967,-2.988518 2.093967,-4.692115 0,-2.093967 -0.349093,-3.631273 -1.046689,-4.6072 -0.754795,-1.118041 -1.914113,-1.950085 -3.477365,-2.493773 -1.563252,-0.544279 -3.140657,-0.817302 -4.733393,-0.817302 -2.010822,0 -3.937319,0.44757 -5.780671,1.339172 -1.815637,0.949981 -3.016233,1.704776 -3.601789,2.261438 -1.900551,1.928856 -3.378889,4.021644 -4.441499,6.284851 -0.362656,0.83794 -0.63568,2.002566 -0.817302,3.497415 -0.181623,1.493669 -0.284818,2.645911 -0.312533,3.456137 3.48916,0.05661 6.679939,0.238822 9.56998,0.546047 2.890041,0.307226 5.132609,0.739464 6.723576,1.299074 0.837941,-1.032537 1.80856,-2.074508 2.911269,-3.121197 z M 39.315497,76.710021 c -0.362655,0.810226 -0.698185,1.52905 -1.005411,2.157653 -0.307225,0.627424 -0.571993,1.179958 -0.796663,1.655243 -0.362655,0.921676 -0.67047,1.843352 -0.921086,2.764438 -0.0572,0.16747 -0.224669,0.698186 -0.503,1.592736 0,0 0,-5.89e-4 0,-0.0012 l 0,-5.9e-4 c -0.195775,-0.781921 -0.363245,-1.326789 -0.50359,-1.633424 -0.278331,-1.088557 -0.599709,-2.011412 -0.962364,-2.765028 -0.16747,-0.475285 -0.412779,-1.02546 -0.734157,-1.655243 -0.321377,-0.629782 -0.663394,-1.347427 -1.02605,-2.157653 -0.2229,-0.475285 -0.458774,-1.053765 -0.711748,-1.737209 -0.250616,-0.684033 -0.503,-1.36217 -0.752437,-2.031461 -0.224669,-0.557841 -0.33494,-1.159318 -0.33494,-1.802074 0,-1.368066 0.487079,-2.535051 1.464775,-3.497415 0.977106,-0.964133 2.164139,-1.445905 3.560511,-1.445905 l 0,0 5.9e-4,0 c 3.322279,0 4.984008,1.65996 4.984008,4.984008 0,0.642756 -0.110861,1.243644 -0.334941,1.803254 -0.613271,1.815636 -1.088556,3.071663 -1.423497,3.769849 z m -3.22616,-7.290262 0,8.294494 c 0,0 0,5.89e-4 0,5.89e-4 0.05543,-0.278331 0.126192,-0.516563 0.208748,-0.711748 0.16747,-0.557841 0.307225,-0.964133 0.419855,-1.214749 0.08315,-0.195185 0.195185,-0.440494 0.33494,-0.734156 0.137986,-0.291894 0.278331,-0.606196 0.418086,-0.942905 0.08491,-0.195185 0.188109,-0.454646 0.314302,-0.774255 0.126192,-0.319609 0.229976,-0.620347 0.314301,-0.899858 0.08315,-0.252384 0.126193,-0.516563 0.126193,-0.796663 0,-1.480696 -0.713518,-2.220749 -2.136425,-2.220749 z" /></g>
</svg>